# xmcd CD database file
#
# Track frame offsets:
#	150
#	19472
#	38270
#	61045
#	84505
#	100830
#	127405
#	149317
#	167995
#	192290
#	215712
#	242687
#
# Disc length: 3468 seconds
#
# Revision: 2
# Processed by: cddbd v1.5.2PL0 Copyright (c) Steve Scherf et al.
# Submitted via: CDex 2.21
#
DISCID=a90d8a0c
DTITLE=Runrig - Amazing Things
DYEAR=1993
DGENRE=Pop/Rock
TTITLE0=Amazing Things
TTITLE1=Wonderful
TTITLE2=The Greatest Flame
TTITLE3=Move a Mountain
TTITLE4=Pog Aon Oidche Earraich (A Kiss One Spring Evening)
TTITLE5=Dream Fields
TTITLE6=Song of the Earth
TTITLE7=Forever Eyes of Blue
TTITLE8=Sraidean Na Roinn-Eorpa (Streets Of Europe)
TTITLE9=Canada
TTITLE10=Ard (High)
TTITLE11=On the Edge
EXTD=YEAR: 1993
EXTT0=
EXTT1=
EXTT2=
EXTT3=
EXTT4=
EXTT5=
EXTT6=
EXTT7=
EXTT8=
EXTT9=
EXTT10=
EXTT11=
PLAYORDER=
